<svg width="36" height="36" viewBox="0 0 36 36" fill="none" xmlns="http://www.w3.org/2000/svg">
  <path d="M3.8498 35.9C2.8998 35.9 1.9498 35.55 1.1998 34.8C-0.250195 33.35 -0.250195 30.95 1.1998 29.5L29.4998 1.20005C30.9498 -0.249951 33.3498 -0.249951 34.7998 1.20005C36.2498 2.65005 36.2498 5.05005 34.7998 6.50005L6.4998 34.8C5.7998 35.55 4.7998 35.9 3.8498 35.9Z" fill="#C91433"/>
  <path d="M32.1498 35.9C31.1998 35.9 30.2498 35.55 29.4998 34.8L1.1998 6.50005C-0.250195 5.05005 -0.250195 2.65005 1.1998 1.20005C2.6498 -0.249951 5.0498 -0.249951 6.4998 1.20005L34.7998 29.5C36.2498 30.95 36.2498 33.35 34.7998 34.8C34.0498 35.55 33.0998 35.9 32.1498 35.9Z" fill="#C91433"/>
</svg>
